HIERARCHY
ROOT hip
{
  OFFSET 0.0 0.0 0.0
  CHANNELS 6 Xposition Yposition Zposition Zrotation Yrotation Xrotation
  JOINT torso
  {
    OFFSET 0.0 0.0 0.0
    CHANNELS 3 Zrotation Xrotation Yrotation
    JOINT neck
    {
      OFFSET -20.11218299999996 327.95800799999995 66.30578600000035
      CHANNELS 3 Zrotation Xrotation Yrotation
      JOINT head
      {
        OFFSET 18.28939800000012 288.83178699999996 217.81652800000006
        CHANNELS 3 Zrotation Xrotation Yrotation
        End Site
        {
          OFFSET 0.0 0.0 0.0
        }
      }
    }
    JOINT left_collar
    {
      OFFSET -20.11218299999996 327.95800799999995 66.30578600000035
      CHANNELS 3 Zrotation Xrotation Yrotation
      JOINT left_upper_arm
      {
        OFFSET -127.08163400000001 -16.17407199999991 15.44799799999987
        CHANNELS 3 Zrotation Xrotation Yrotation
        JOINT left_forearm
        {
          OFFSET -234.267792 45.78796399999999 109.31286600000021
          CHANNELS 3 Zrotation Xrotation Yrotation
          JOINT left_hand
          {
            OFFSET -259.114014 -33.25433399999997 16.18847699999992
            CHANNELS 3 Zrotation Xrotation Yrotation
            End Site
            {
              OFFSET 0.0 0.0 0.0
            }
          }
        }
      }
    }
    JOINT right_collar
    {
      OFFSET -20.11218299999996 327.95800799999995 66.30578600000035
      CHANNELS 3 Zrotation Xrotation Yrotation
      JOINT right_upper_arm
      {
        OFFSET 164.513184 1.5733030000000099 4.892333999999892
        CHANNELS 3 Zrotation Xrotation Yrotation
        JOINT right_forearm
        {
          OFFSET 260.742027 48.718444999999974 144.35229500000014
          CHANNELS 3 Zrotation Xrotation Yrotation
          JOINT right_hand
          {
            OFFSET 287.85150899999996 -44.57171600000015 13.96813899999961
            CHANNELS 3 Zrotation Xrotation Yrotation
            End Site
            {
              OFFSET 0.0 0.0 0.0
            }
          }
        }
      }
    }
  }
}
MOTION
Frames: 11
Frame Time: 0.01
-263.5981403712108 259.89729520797897 1407.5700865688345 -1.5798490894351558 0.6206061845341582 -18.30476896068339 1.5069519285749216 0.13858626520637735 -0.29467718245844593 1.1953150790255402 -16.090068563934615 -0.04046588487962939 0.0 0.0 0.0 1.9513821047436466 0.899644696989055 -4.544562072676752 76.01126416558344 18.510096975650953 29.90383472112895 12.00463748622849 2.1582688036330304 -5.8613797656247355 0.0 0.0 0.0 -0.16242157839155644 -0.02073477476528418 3.1355235138086166 -64.31711835366332 24.53176443674338 -21.180758833549767 -27.445389845840385 -0.9421878457496553 -5.675827166077001 0.0 0.0 0.0
-263.6087435217869 259.8581701297709 1407.5939357809482 -1.4468463900789992 0.4911262989488655 -18.14268200496439 1.414320979090355 0.24347805849898518 -0.2683398763384201 1.231665635399229 -16.089337434882577 -0.06990156367738021 0.0 0.0 0.0 1.8792946024610966 0.9220584553033251 -4.77893536757034 75.95979676827389 18.507932948440526 29.888221521120933 12.160533637824358 2.1861258481665566 -5.8998144059442525 0.0 0.0 0.0 -0.18695308954859752 -0.01772164909471875 2.9328389382961295 -64.25987601775651 24.51803103105251 -21.166177523358645 -27.58317826569567 -0.9174152173646424 -5.615385029691118 0.0 0.0 0.0
-263.6171193007784 259.8183952247508 1407.6192766333336 -1.3131888935433558 0.3616031884798542 -17.981178469607205 1.3214724183919069 0.34783599407866883 -0.24216086043863677 1.2673363652108125 -16.088068668702714 -0.09881259437677184 0.0 0.0 0.0 1.8072523755021868 0.9442173784801043 -5.013456990712365 75.90694674085617 18.506510575626084 29.870683388194355 12.318347523645043 2.214787079882302 -5.9401039657310575 0.0 0.0 0.0 -0.2127397391572542 -0.014720445076770351 2.7290964595784186 -64.20027296653849 24.503934038629325 -21.150526467479487 -27.72405216968182 -0.8915156067572219 -5.552639613841277 0.0 0.0 0.0
-263.6222805832289 259.7776262884353 1407.6471728712968 -1.179295551196001 0.23250500261247475 -17.82131637401569 1.2287119081929676 0.45090940376304955 -0.21625414375781332 1.302023456110678 -16.086108252142832 -0.12696064532111564 0.0 0.0 0.0 1.7355172212774599 0.9660852053576336 -5.247568941861441 75.85257216533387 18.50627824130774 29.850327769683194 12.47886846251781 2.244613789419979 -5.983294543875566 0.0 0.0 0.0 -0.23995350235980117 -0.011731456687780029 2.5245371688384646 -64.13723152261018 24.489197449907014 -21.13356413733243 -27.86961470000548 -0.8639094783320749 -5.486242804441302 0.0 0.0 0.0
-263.6232184472563 259.7355352100938 1407.6786905298036 -1.0456948273929063 0.10433598117700818 -17.664352401517448 1.1363954630935649 0.5519141976809537 -0.19074271096932105 1.335408275625572 -16.083337216841343 -0.15409367732799958 0.0 0.0 0.0 1.6643882410393382 0.9876121771826707 -5.480551323848964 75.79656794358138 18.507715769240207 29.826213517150553 12.64291472028601 2.2759903120915284 -6.030478045346089 0.0 0.0 0.0 -0.26870981358072826 -0.008760015637267892 2.319560965384426 -64.06962017669734 24.473522433719456 -21.115055131093953 -28.021580716887062 -0.8339788965737254 -5.4147868693605625 0.0 0.0 0.0
-263.6189340544692 259.6918278502343 1407.7148617523426 -0.9130452907880785 -0.022351954624958766 -17.511755881462182 1.0449409681636197 0.6500343674048069 -0.1657603988523903 1.3671593184187794 -16.079681334471612 -0.17994707960491554 0.0 0.0 0.0 1.594209583601694 1.0087318792767161 -5.711485478198254 75.73888038311739 18.511324999045836 29.797373459343994 12.811290590979013 2.3093127229813613 -6.08276325963444 0.0 0.0 0.0 -0.29905235208065706 -0.005816777578644571 2.114768819746211 -63.99628658816258 24.456594570366082 -21.09477983462636 -28.18172266456315 -0.8010826587433483 -5.336846072129978 0.0 0.0 0.0
-263.6084738797654 259.6462598143093 1407.7566506709447 -0.7821474508365193 -0.14695321171269712 -17.36520803505952 0.9548348984732559 0.7444279959852441 -0.14145253373950437 1.3969361196216208 -16.07511913221644 -0.20424648108377885 0.0 0.0 0.0 1.5253743237410504 1.0293597070443379 -5.939232161795348 75.67951978853023 18.51761910690271 29.762838735894206 12.984745477047975 2.344977755106242 -6.141247737756666 0.0 0.0 0.0 -0.3309410265136063 -0.0029174905308875215 1.9109908719883175 -63.91609189286529 24.438091933693634 -21.07254329525005 -28.351814430334105 -0.764571809179597 -5.251019102376652 0.0 0.0 0.0
-263.5909675360931 259.59864925677545 1407.8049227468364 -0.6539453928074858 -0.2688094985726902 -17.22658481091647 0.8666334355050322 0.8342385087043798 -0.11797519644580666 1.424395326229582 -16.06968788387405 -0.22671240462888487 0.0 0.0 0.0 1.458323723673572 1.0493930664561915 -6.16242754239505 75.61857043437617 18.527111012515068 29.72166409705762 13.163936887544203 2.3833723652782366 -6.206991447783975 0.0 0.0 0.0 -0.3642439139736517 -8.226323346188555e-05 1.709297542461006 -63.82794523819017 24.41769380170024 -21.048182982001354 -28.53357511609041 -0.7238050416278637 -5.1559708485143885 0.0 0.0 0.0
-263.5656672634355 259.5488860029405 1407.8604187652568 -0.5295175990044576 -0.38721846097131957 -17.09792284993209 0.7809576732024037 0.9186113399696656 -0.09549312173143717 1.4491989510660386 -16.06348735512401 -0.24706678966058757 0.0 0.0 0.0 1.3935415069779713 1.06871327060435 -6.379498448470591 75.55619743691105 18.54030130495738 29.672953257395005 13.349399009074773 2.4248642860353087 -6.280992999035949 0.0 0.0 0.0 -0.3987336632448918 0.002665593195486398 1.5109921434412783 -63.73083743759364 24.395089708114106 -21.021575234215504 -28.72861459613136 -0.6781635428899695 -5.050472019246636 0.0 0.0 0.0
-263.5319879906377 259.4969364943852 1407.9237344063642 -0.41005726034977746 -0.5014498810663918 -16.981369444627273 0.6984831417817537 0.9967155308265759 -0.07417638037476396 1.4710246340579294 -16.05668118947452 -0.26504124202936785 0.0 0.0 0.0 1.33154323532775 1.0871889548462634 -6.588696765740152 75.4926501821581 18.55766618854039 29.615883302623445 13.541518151614929 2.4697938172582523 -6.364169049274776 0.0 0.0 0.0 -0.4340886147165859 0.005301026618743084 1.3175849558114328 -63.62387259800053 24.369988492295846 -20.992640288290104 -28.938382658220807 -0.6270648772344026 -4.933435137724411 0.0 0.0 0.0
-263.489546743633 259.44284434339266 1407.9953059793497 -0.2968432657762541 -0.6107685214686788 -16.879118674176315 0.6199243705703067 1.067769114513497 -0.054196110279242767 1.4895775245051195 -16.049495909684623 -0.2803866957260053 0.0 0.0 0.0 1.2728613685447256 1.1046807178881641 -6.7881512633599 75.42826211095327 18.579645986382815 29.5497271083963 13.740515939599161 2.518467031639792 -6.4573373496489825 0.0 0.0 0.0 -0.46989863469902377 0.007798847381489335 1.130750237359809 -63.50629654174888 24.342126970310783 -20.96134581538086 -29.1641234085468 -0.5699755552030632 -4.803945505694766 0.0 0.0 0.0
